HIERARCHY
ROOT hip
{
	OFFSET 0.000000 0.000000 0.000000 
	CHANNELS 6 Xposition Yposition Zposition Xrotation Zrotation Yrotation
	JOINT abdomen
	{
		OFFSET 0.000000 3.402643 0.000000 
		CHANNELS 3 Xrotation Zrotation Yrotation
		JOINT chest
		{
			OFFSET 0.000000 8.438565 -0.680529 
			CHANNELS 3 Xrotation Zrotation Yrotation
			JOINT neck
			{
				OFFSET 0.000000 10.207942 -0.272212 
				CHANNELS 3 Xrotation Zrotation Yrotation
				JOINT head
				{
					OFFSET 0.000000 3.130431 0.000000 
					CHANNELS 3 Xrotation Zrotation Yrotation
					End Site
					{
						OFFSET 0.000000 3.130435 0.000000 
					}
				}
			}
			JOINT lCollar
			{
				OFFSET 3.470700 6.669187 -0.816635 
				CHANNELS 3 Yrotation Zrotation Xrotation
				JOINT lShldr
				{
					OFFSET 3.198488 0.000000 0.000000 
					CHANNELS 3 Zrotation Yrotation Xrotation
					JOINT lForeArm
					{
						OFFSET 10.139888 0.000000 0.000000 
						CHANNELS 3 Yrotation Zrotation Xrotation
						JOINT lHand
						{
							OFFSET 8.370511 0.000000 0.000000 
							CHANNELS 3 Zrotation Yrotation Xrotation
							End Site
							{
								OFFSET 4.083176 0.000000 0.000000 
							}
						}
					}
				}
			}
			JOINT rCollar
			{
				OFFSET -3.470700 6.669187 -0.816635 
				CHANNELS 3 Yrotation Zrotation Xrotation
				JOINT rShldr
				{
					OFFSET -3.198488 0.000000 0.000000 
					CHANNELS 3 Zrotation Yrotation Xrotation
					JOINT rForeArm
					{
						OFFSET -10.139888 0.000000 0.000000 
						CHANNELS 3 Yrotation Zrotation Xrotation
						JOINT rHand
						{
							OFFSET -8.370511 0.000000 0.000000 
							CHANNELS 3 Zrotation Yrotation Xrotation
							End Site
							{
								OFFSET -4.083176 0.000000 0.000000 
							}
						}
					}
				}
			}
		}
	}
	JOINT lThigh
	{
		OFFSET 5.308129 -1.633274 1.361059 
		CHANNELS 3 Xrotation Zrotation Yrotation
		JOINT lShin
		{
			OFFSET -2.041588 -20.007561 0.000000 
			CHANNELS 3 Xrotation Zrotation Yrotation
			JOINT lFoot
			{
				OFFSET 0.000000 -19.190928 -1.224953 
				CHANNELS 3 Xrotation Yrotation Zrotation
				End Site
				{
					OFFSET 0.000000 -2.449906 4.627600 
				}
			}
		}
	}
	JOINT rThigh
	{
		OFFSET -5.308129 -1.633274 1.361059 
		CHANNELS 3 Xrotation Zrotation Yrotation
		JOINT rShin
		{
			OFFSET 2.041588 -20.007561 0.000000 
			CHANNELS 3 Xrotation Zrotation Yrotation
			JOINT rFoot
			{
				OFFSET 0.000000 -19.190928 -1.224953 
				CHANNELS 3 Xrotation Yrotation Zrotation
				End Site
				{
					OFFSET 0.000000 -2.449906 4.627600 
				}
			}
		}
	}
}
MOTION
Frames: 11
Frame Time: 0.033333
0.282050 48.611492 0.282050 0.773298 0.365253 -26.521057 25.357130 7.571789 -20.029432 2.460938 0.000245 -0.019528 -9.433595 -0.009690 0.001613 19.807169 16.865419 47.852581 2.000000 -2.000000 0.000000 -8.251493 -51.020828 -29.155035 -46.275909 -0.599773 8.546930 -37.527386 -54.128384 -161.604568 -2.000000 2.000000 0.000000 -31.276197 136.569061 -91.438782 54.419010 0.554422 8.622923 13.214983 -54.089943 -39.775913 -27.527376 22.028715 15.201976 23.249083 -1.459935 -2.032962 8.021650 -6.702202 -10.487044 7.672455 -17.084906 -13.614128 22.966772 1.438132 2.014141 -22.235079 -16.192240 16.767788 
0.472375 48.418655 0.472375 -2.964958 -0.489070 -24.612492 28.410063 7.490167 -21.119850 2.460938 0.000245 -0.019528 -9.433595 -0.009690 0.001613 17.696890 14.508143 47.110653 2.000000 -2.000000 0.000000 -26.840204 -25.022467 -18.613960 -75.485672 -0.508479 8.838597 -50.884399 -45.046459 -139.664795 -2.000000 2.000000 0.000000 -37.351608 138.478119 -89.015358 59.163303 0.534578 8.663651 11.856834 -53.596455 -38.672546 -28.114088 20.994768 14.311848 33.281170 -1.071736 -2.654967 2.155160 -5.059443 -9.050097 -0.967386 -16.962595 -11.534759 35.529720 0.943881 2.731890 -26.024788 -13.925916 14.802485 
0.878068 48.163124 0.878068 -7.617025 -1.180737 -19.529400 31.856604 7.213553 -21.763708 2.460938 0.000245 -0.019528 -9.433595 -0.009690 0.001613 13.259431 10.268536 41.674492 2.000000 -2.000000 0.000000 -36.521088 -14.415333 -15.133809 -92.110909 -0.530191 9.010164 -54.071892 -21.647709 -111.449707 -2.000000 2.000000 0.000000 124.472931 45.019119 82.201157 68.643471 0.514420 8.756043 9.748159 -44.799706 -37.472988 -26.821400 18.081074 11.967288 41.081944 -0.696211 -3.082980 -3.024692 -2.307842 -7.408676 -11.998788 -14.985036 -8.055594 49.034649 0.244248 3.387735 -28.792898 -10.253681 11.189977 
1.313807 48.067989 1.313807 -12.464811 -1.321558 -12.751748 36.092472 6.975378 -21.865318 3.212891 0.000373 -0.019524 -9.433595 -0.009690 0.001613 8.760860 5.644545 34.212505 2.000000 -2.000000 0.000000 -45.251392 -7.802761 -12.035747 -106.086769 -0.572600 9.134474 -42.931648 3.499112 -82.101341 -2.000000 2.000000 0.000000 104.296120 47.793091 68.980858 75.126122 0.509253 8.826923 8.090936 -34.829613 -36.905704 -24.155151 14.673589 8.636345 46.917057 -0.384081 -3.335809 -7.591816 0.747281 -5.979507 -23.883877 -11.482965 -4.437825 62.252647 -0.566293 3.863463 -30.114147 -6.445859 7.354347 
1.834706 48.143124 1.834706 -17.640207 -2.155688 -6.024158 40.398632 6.531572 -21.613569 3.974610 0.000502 -0.019518 -9.433595 -0.009690 0.001613 5.710372 2.418993 27.576096 2.000000 -2.000000 0.000000 -52.074860 -4.131859 -9.582403 -116.848816 -0.637355 9.237250 -21.613665 18.081436 -49.349789 -2.000000 2.000000 0.000000 83.763916 47.370319 53.462502 80.380394 0.505200 8.877299 6.752695 -24.957743 -36.749340 -20.833223 11.860807 5.153694 51.325294 -0.148110 -3.521386 -11.717155 3.386324 -4.933197 -35.691456 -7.431586 -1.790179 74.773438 -1.435562 4.102937 -30.581930 -3.338880 4.397947 
2.445741 48.223259 2.445741 -21.134550 -1.733222 -1.031938 44.694782 5.875712 -21.137802 5.029297 0.000635 -0.019511 -9.433595 -0.009690 0.001613 5.160464 3.285378 24.044971 2.000000 -2.000000 0.000000 -55.480534 -4.328977 -8.500510 -122.015388 -0.672407 9.270513 -2.871886 19.658485 -23.497881 -2.000000 2.000000 0.000000 70.130318 45.967693 41.309647 83.878319 0.508247 8.923409 5.980380 -18.172375 -36.976860 -17.517694 10.243058 2.780322 54.425125 0.036449 -3.656826 -15.212564 4.781203 -4.097136 -46.828751 -4.081446 -0.489722 86.193367 -2.255402 4.180532 -31.400373 -1.358673 2.713532 
3.257125 48.233257 3.257125 -22.896099 -1.583437 1.385463 48.894352 5.031075 -20.557089 6.113281 0.000772 -0.019501 -9.433595 -0.009690 0.001613 5.028875 6.111730 22.643852 2.000000 -2.000000 0.000000 -55.157440 -8.505396 -8.982113 -120.971268 -0.664087 9.267279 6.010578 17.587067 -11.089346 -2.000000 2.000000 0.000000 63.369301 46.787766 32.884418 85.331841 0.509735 8.937792 5.802151 -14.893113 -37.781834 -15.240730 9.245854 1.848167 56.364243 0.181053 -3.732010 -17.939272 5.660296 -3.155186 -57.905121 -2.441322 -0.351988 97.249641 -3.036586 4.095906 -33.733261 -0.577093 2.210219 
4.293897 48.168125 4.293897 -23.092852 -1.779098 1.986041 52.951141 4.051720 -19.955603 7.246094 0.000914 -0.019488 -9.433595 -0.009690 0.001613 3.769681 7.318696 21.443556 2.000000 -2.000000 0.000000 -52.069149 -15.439952 -10.709103 -115.566078 -0.625137 9.224115 8.953862 16.444508 -6.850723 -2.000000 2.000000 0.000000 59.152302 49.353531 25.783434 85.476181 0.516078 8.939449 5.953842 -13.127061 -39.197990 -14.237234 8.075651 1.666571 57.349922 0.221480 -3.746498 -19.903307 7.124198 -1.929011 -69.229401 -2.226558 -0.712603 107.808296 -3.739931 3.893204 -37.277386 -0.614854 2.273303 
5.395778 48.143124 5.395778 -22.716869 -2.171398 1.636057 56.762302 2.987784 -19.422211 8.427734 0.001061 -0.019473 -9.433595 -0.009690 0.001613 2.115324 7.327373 20.301369 2.000000 -2.000000 0.000000 -46.704231 -23.784763 -13.902447 -107.418823 -0.582263 9.152388 8.589197 16.604301 -7.380081 -2.000000 2.000000 0.000000 55.682983 52.827690 18.909054 85.025398 0.508737 8.938836 6.265760 -12.264627 -40.806561 -13.699001 6.727550 1.938062 57.651550 0.250680 -3.764271 -21.301708 8.859725 -0.507280 -80.019379 -2.861298 -1.202136 116.003754 -4.286047 3.630345 -40.633995 -1.007061 2.475622 
6.412523 48.148125 6.412523 -22.899384 -2.573430 1.201903 60.287689 1.920901 -19.053480 9.658202 0.001215 -0.019455 -9.433595 -0.009690 0.001613 0.007717 7.340783 19.224983 2.000000 -2.000000 0.000000 -39.248787 -32.248371 -18.938984 -98.065285 -0.544121 9.059740 6.286636 17.492945 -10.702703 -2.000000 2.000000 0.000000 52.341015 56.447571 11.716002 84.462631 0.512259 8.928320 6.626609 -12.314847 -42.038258 -12.537090 5.614495 2.415157 57.495834 0.241018 -3.752594 -22.281321 9.987446 0.858065 -89.019997 -3.563936 -1.560433 119.357948 -4.480685 3.480730 -42.115158 -1.358601 2.624401 
7.173826 48.578922 7.173826 -25.291883 -2.728173 0.769492 63.462471 0.880954 -19.049763 10.966797 0.001379 -0.019433 -9.511719 -0.009687 0.001627 -3.144298 8.389735 18.029669 2.000000 -2.000000 0.000000 -30.135969 -39.482445 -25.792101 -88.987244 -0.518151 8.972156 3.427423 18.385508 -14.746831 -2.000000 2.000000 0.000000 49.276817 59.326790 4.356985 84.326889 0.506196 8.924382 6.936365 -13.290985 -42.401676 -8.621802 4.784443 3.084069 56.297832 0.153562 -3.694684 -22.736095 10.499402 1.839772 -92.247414 -3.837891 -1.609017 109.428162 -3.860422 3.865465 -38.976715 -1.515515 2.794147 
